# xmcd
#
# Track frame offsets: 
#        150
#        17335
#        36793
#        54146
#        74456
#        92112
#        108599
#        127622
#        141581
#        156683
#        171259
#
# Disc length: 2550 seconds
#
# Revision: 0
# Processed by: cddbd v1.5.2PL0 Copyright (c) Steve Scherf et al.
# Submitted via: ExactAudioCopyFreeDBPlugin 1.0
#
DISCID=9309f40b
DTITLE=Ferhat Göçer - Kalbe Kiralık Aşklar
DYEAR=2013
DGENRE=Pop
TTITLE0=Git
TTITLE1=İstanbul'un Surları
TTITLE2=Sarıl Bana
TTITLE3=Kalbe Kiralık Aşklar
TTITLE4=Nasıl Da Değişiyor Rengi
TTITLE5=Mehtaplı Geceler
TTITLE6=Talihimin Döndüğü Yok
TTITLE7=Büyük Oyun
TTITLE8=Kimbilir
TTITLE9=Belki De
TTITLE10=Avare Martılar
EXTD=
EXTT0=
EXTT1=
EXTT2=
EXTT3=
EXTT4=
EXTT5=
EXTT6=
EXTT7=
EXTT8=
EXTT9=
EXTT10=
PLAYORDER=
